<?xml version="1.0" encoding="utf-8"?>
<!-- Generator: Adobe Illustrator 24.1.1, SVG Export Plug-In . SVG Version: 6.00 Build 0)  -->
<svg version="1.1"
	 id="svg42" inkscape:version="1.0.1 (3bc2e813f5, 2020-09-07)" sodipodi:docname="anchor-dark.svg" xmlns:cc="http://creativecommons.org/ns#" xmlns:dc="http://purl.org/dc/elements/1.1/" xmlns:inkscape="http://www.inkscape.org/namespaces/inkscape" xmlns:rdf="http://www.w3.org/1999/02/22-rdf-syntax-ns#" xmlns:sodipodi="http://sodipodi.sourceforge.net/DTD/sodipodi-0.dtd" xmlns:svg="http://www.w3.org/2000/svg"
	 xmlns="http://www.w3.org/2000/svg" xmlns:xlink="http://www.w3.org/1999/xlink" x="0px" y="0px" viewBox="0 0 24 24"
	 style="enable-background:new 0 0 24 24;" xml:space="preserve">
<style type="text/css">
	.st0{fill:none;}
	.st1{fill:#CCCCCC;}
</style>
<sodipodi:namedview  bordercolor="#666666" borderopacity="1" gridtolerance="10" guidetolerance="10" id="namedview44" inkscape:current-layer="svg42" inkscape:cx="12" inkscape:cy="12.940476" inkscape:pageopacity="0" inkscape:pageshadow="2" inkscape:window-height="1360" inkscape:window-maximized="1" inkscape:window-width="2560" inkscape:window-x="-11" inkscape:window-y="35" inkscape:zoom="42" objecttolerance="10" pagecolor="#ffffff" showgrid="false">
	</sodipodi:namedview>
<path id="path38" class="st0" d="M0,0h24v24H0V0z"/>
<path id="path40" class="st1" d="M12.8,10.3v8.2c3-0.4,5.3-2.7,5.7-5.7h-2.4l3-4.9c0.7,1.2,1.1,2.6,1.1,4c0,4.5-3.7,8.2-8.2,8.2
	S3.8,16.5,3.8,12c0-1.5,0.4-2.9,1.1-4l3,4.9H5.5c0.4,3,2.7,5.3,5.7,5.7v-8.2C9.4,9.8,8.4,8,8.8,6.3c0.4-1.4,1.7-2.4,3.2-2.4
	c1.8,0,3.3,1.5,3.3,3.3C15.3,8.6,14.3,9.9,12.8,10.3z M12,8.7c0.9,0,1.6-0.7,1.6-1.6S12.9,5.5,12,5.5s-1.6,0.7-1.6,1.6
	S11.1,8.7,12,8.7z"/>
</svg>
