<?xml version="1.0" encoding="utf-8"?>
<!-- Generator: Adobe Illustrator 24.1.1, SVG Export Plug-In . SVG Version: 6.00 Build 0)  -->
<svg version="1.1" id="图层_1" xmlns="http://www.w3.org/2000/svg" xmlns:xlink="http://www.w3.org/1999/xlink" x="0px" y="0px"
	 viewBox="0 0 24 24" style="enable-background:new 0 0 24 24;" xml:space="preserve">
<style type="text/css">
	.st0{fill:none;}
</style>
<path class="st0" d="M0,0h24v24H0V0z"/>
<path d="M12.8,10.3v7.8c2.8-0.4,5.1-2.6,5.4-5.4h-2.3l2.9-4.6c0.7,1.2,1,2.5,1,3.9c0,4.3-3.5,7.8-7.8,7.8S4.2,16.3,4.2,12
	c0-1.4,0.4-2.7,1-3.9l2.9,4.6H5.8c0.4,2.8,2.6,5.1,5.4,5.4v-7.8C9.6,9.9,8.6,8.2,9,6.5c0.4-1.4,1.6-2.3,3-2.3c1.7,0,3.1,1.4,3.1,3.1
	C15.1,8.7,14.2,10,12.8,10.3z M12,8.9c0.9,0,1.6-0.7,1.6-1.6S12.9,5.8,12,5.8c-0.9,0-1.6,0.7-1.6,1.6S11.1,8.9,12,8.9z"/>
</svg>
